<?xml version="1.0" encoding="UTF-8"?>
<svg id="_Слой_1" data-name="Слой 1" xmlns="http://www.w3.org/2000/svg" viewBox="0 0 1036.54 241.72">
  <defs>
    <style>
      .cls-1 {
        fill: #fff;
        stroke-width: 0px;
      }
    </style>
  </defs>
  <path class="cls-1" d="m95.7,131.94c-30.15,0-60.31.11-90.46-.09C-.4,131.81.01,126.25,0,122.92c-.02-6.98.74-14.05,2-20.93,1.52-8.34,3.23-16.75,6.01-24.72,7-20.09,19.53-36.23,36.32-49.36C59.68,15.91,76.38,7.22,95.42,2.81c24.18-5.6,47.57-2.45,70.41,6,39.42,14.57,62.69,43.81,74.36,83.25,1.91,6.46.76,7.94-5.57,7.95q-8.89.02-11.74-8.8c-12.78-39.69-39.78-64.37-80.37-72.39C90.09,8.47,34.39,36.24,19.02,98.87c-.59,2.41-.85,4.91-1.1,7.39-.67,6.48.86,8.62,6.59,9.43,5.96.84,9.28-1.37,10.15-7.3,2.56-17.58,9.66-33.03,21.83-45.92,18.76-19.87,41.52-30.44,69.33-28.67,39.1,2.48,64.59,23.69,80.3,58.31,2.94,6.47,1.82,7.39-5.25,8.07-6.91.66-10.21-1.9-13-8.28-12.33-28.23-37.58-42.5-69.41-42.09-30.31.39-60.01,24.49-66.19,54.15-1.9,9.12.11,12,9.5,12.01,46.83.02,93.66,0,140.49,0,8.26,0,9.94,2.41,9.16,10.7-1.64,17.42-7.11,33.31-17.77,47.25-15.31,20.03-35.5,31.68-60.64,34.11-39.32,3.81-68.41-12.48-88.48-45.9-1.69-2.81-2.71-6.02-4.1-9.02-1.54-3.33-.09-5.03,3.09-5.8,6.82-1.64,12.71.83,15.7,7.06,18.52,38.56,72.69,50.25,107.18,23.74,11.67-8.97,20.06-20.09,24.74-34.07,3.25-9.73,1.68-12.16-8.43-12.16-29-.01-58,.08-86.99.08,0,.03,0-.03,0,0Z"/>
  <path class="cls-1" d="m243.8,128.5c-1.06,22.84-8.4,44.77-23.22,64.02-13.5,17.54-30.07,31.12-50.76,39.47-12.33,4.98-24.92,8.63-38.32,9.04-3.41.1-6.82.52-10.23.64-16.6.58-32.15-3.59-47.42-9.8-14.16-5.76-26.28-14.47-37.07-24.92-15.38-14.9-25.87-32.95-31.74-53.61-1-3.5-.11-5.88,3.94-6.07,8.34-.4,11.67-.32,15.01,8.91,13.9,38.48,41.91,61.26,81.84,67.68,38.43,6.18,71.52-6.09,97.71-35.12,13.09-14.52,20.4-32.08,23.21-51.41.74-5.08.85-10.25,1.08-15.39.18-4.05,1.9-5.95,6.15-6.01,9.45-.13,9.94.29,9.83,12.57Z"/>
  <path class="cls-1" d="m864.3,91v61.75h-12.86v-39.79c-.39-.16-.78-.32-1.17-.49-3.19,5.31-6.69,10.47-9.48,15.99-2.1,4.16-5.16,4.67-9.25,4.67-4.06,0-6.88-.54-8.87-4.78-2.46-5.26-5.98-10.03-9.65-16.02v40.47h-13.17v-61.8c4.16,0,8.3-.25,12.38.14,1.37.13,2.97,1.68,3.8,3,4.44,7.12,8.66,14.38,12.99,21.56,2,3.33,3.28,3.15,5.33-.3,4.22-7.12,8.73-14.07,12.79-21.28,1.45-2.58,3.13-3.32,5.86-3.17,3.8-.03,7.26-.03,11.31.05Z"/>
  <path class="cls-1" d="m577.58,152.8h-13.26v-50.58h-24.21v50.54h-13.35v-61.4h50.83v61.44Z"/>
  <path class="cls-1" d="m642.54,152.83h-13.14v-50.57h-24.21v50.47h-13.39v-61.5h50.74v61.6Z"/>
  <path class="cls-1" d="m709.86,152.83c-1.19.08-2.01.16-2.83.17-11.28.17-11.34.19-15.03-10.63-.87-2.57-2.18-3.55-4.92-3.43-4.82.22-9.66.24-14.47,0-3.08-.16-4.38.89-4.98,3.93-.66,3.35-2.01,6.57-3.11,9.99h-14.73c4.34-12.49,8.6-24.75,12.86-37.01,2.45-7.03,5.12-13.99,7.25-21.12.88-2.93,2.22-3.76,5.09-3.79,13.55-.17,13.49-.22,17.76,12.29,5.63,16.49,11.35,32.94,17.1,49.6Zm-29.7-49.98c-2.75,8.88-5.21,16.8-7.74,24.96h15.52c-2.54-8.17-5-16.04-7.78-24.96Z"/>
  <path class="cls-1" d="m930.91,152.83c-1.23.08-2.05.17-2.87.18-11.3.18-11.36.2-15.04-10.62-.87-2.56-2.16-3.56-4.91-3.44-4.82.22-9.66.24-14.47,0-3.07-.16-4.39.87-4.99,3.91-.66,3.35-2.01,6.57-3.15,10.15-2.42,0-4.9,0-7.38,0-2.32,0-4.63,0-7.36,0,4.39-12.64,8.64-24.9,12.9-37.15,2.45-7.03,5.12-13.99,7.26-21.12.88-2.92,2.19-3.63,5.08-3.78,4.53-.24,9.73-.59,13.12.75,2.93,2.04,3.25,7.85,4.7,12.01,5.68,16.3,11.35,32.59,17.11,49.1Zm-29.75-50.02c-2.83,9.13-5.25,16.95-7.76,25.05h15.54c-2.53-8.14-4.97-16.01-7.77-25.05Z"/>
  <path class="cls-1" d="m427.65,132.53v20.26h-12.81v-62.26c10.31,0,20.4-.47,30.18,1.4,9.79,1.87,15.24,8.3,15.06,19.89-.16,10.25-5.53,17.06-15.69,19.08-5.26,1.04-10.73,1.09-16.74,1.64Zm.69-30.31v18.51c13.37,1.09,18.16-1.3,18.33-8.96.18-8.04-4.4-10.48-18.33-9.55Z"/>
  <path class="cls-1" d="m951.81,132.51v20.19h-12.88v-61.61c10.56-.37,20.35-.46,30.36,1.13,9.84,2.16,14.93,9.44,14.88,19.37-.05,10.1-5.48,17.19-15.56,19.27-5.27,1.09-10.76,1.09-16.8,1.64Zm.42-11.33c6.2-.84,13.32,2.12,16.99-4.62,1.51-2.79,1.39-8.05-.32-10.68-5.42-4.99-10.47-4.06-16.67-3.91v19.21Z"/>
  <path class="cls-1" d="m787.32,104c-10.22-3.45-20.09-5.82-28.39,3.34-6,6.62-7.28,18.12-2.12,26.3,8.04,12.74,19.76,10.56,31.71,6.17.27,3.65.51,6.92.77,10.33-15.08,8.17-41.56,4.97-48.02-17.29-4.07-14.03-.61-29.88,11.94-37.61,7.51-4.62,15.61-5.53,24.76-4.62.8.16,1.6.29,2.41.37,8.71,2.16,10.64,4.08,6.95,13.01Z"/>
  <path class="cls-1" d="m491.79,120.49c3.76-8.34,7.5-15.18,9.89-22.45,1.72-5.23,3.87-7.12,9.59-7.09,2.3.01,4.64.05,7.66.05-2.48,5.82-4.76,11.28-7.14,16.69-6.16,14.04-12.29,28.1-18.67,42.04-.68,1.48-2.89,2.89-4.56,3.14-3.24.5-6.6.14-10.64.14,1.51-3.89,3.12-7.18,4.25-10.6,2.51-7.56,2.95-9.23.51-14.13-6.06-12.15-11.95-24.38-18.26-37.29,4.65,0,8.5-.4,12.19.19,1.54.25,3.22,2.38,4,4.05,3.71,7.94,7.14,16.01,11.19,25.25Z"/>
  <path class="cls-1" d="m1019.2,152.81h-13.66v-50.71h-18.48v-10.84h49.48v10.65h-17.35v50.91Z"/>
  <path class="cls-1" d="m379.12,101.81v50.88h-13.32v-61.44h40.68v10.55h-27.36Z"/>
  <rect class="cls-1" x="302.09" y="41.6" width="3.55" height="166.94"/>
</svg>